<svg width="27" height="27" viewBox="0 0 27 27" fill="none" xmlns="http://www.w3.org/2000/svg">
<path d="M14.7656 18.9844C14.7656 19.2347 14.6914 19.4794 14.5523 19.6875C14.4133 19.8957 14.2156 20.0579 13.9843 20.1537C13.7531 20.2495 13.4986 20.2745 13.2531 20.2257C13.0076 20.1768 12.7821 20.0563 12.6051 19.8793C12.4281 19.7023 12.3075 19.4768 12.2587 19.2313C12.2099 18.9858 12.2349 18.7313 12.3307 18.5C12.4265 18.2688 12.5887 18.0711 12.7969 17.932C13.005 17.793 13.2497 17.7188 13.5 17.7188C13.8357 17.7188 14.1576 17.8521 14.3949 18.0894C14.6323 18.3268 14.7656 18.6487 14.7656 18.9844ZM13.5 7.59375C11.1734 7.59375 9.28126 9.29707 9.28126 11.3906V11.8125C9.28126 12.0363 9.37015 12.2509 9.52838 12.4091C9.68662 12.5674 9.90123 12.6563 10.125 12.6563C10.3488 12.6563 10.5634 12.5674 10.7216 12.4091C10.8799 12.2509 10.9688 12.0363 10.9688 11.8125V11.3906C10.9688 10.2305 12.1047 9.28125 13.5 9.28125C14.8954 9.28125 16.0313 10.2305 16.0313 11.3906C16.0313 12.5508 14.8954 13.5 13.5 13.5C13.2762 13.5 13.0616 13.5889 12.9034 13.7471C12.7452 13.9054 12.6563 14.12 12.6563 14.3438V15.1875C12.6563 15.4113 12.7452 15.6259 12.9034 15.7841C13.0616 15.9424 13.2762 16.0313 13.5 16.0313C13.7238 16.0313 13.9384 15.9424 14.0966 15.7841C14.2549 15.6259 14.3438 15.4113 14.3438 15.1875V15.1116C16.2675 14.7582 17.7188 13.2237 17.7188 11.3906C17.7188 9.29707 15.8266 7.59375 13.5 7.59375ZM24.4688 13.5C24.4688 15.6694 23.8255 17.7901 22.6202 19.5939C21.4149 21.3977 19.7018 22.8036 17.6976 23.6338C15.6933 24.464 13.4878 24.6812 11.3601 24.258C9.23238 23.8348 7.27794 22.7901 5.74393 21.2561C4.20992 19.7221 3.16525 17.7676 2.74202 15.6399C2.31878 13.5122 2.536 11.3067 3.3662 9.30244C4.1964 7.29816 5.60229 5.58508 7.40609 4.37982C9.2099 3.17456 11.3306 2.53125 13.5 2.53125C16.4082 2.53432 19.1963 3.69094 21.2527 5.74731C23.3091 7.80369 24.4657 10.5918 24.4688 13.5ZM22.7813 13.5C22.7813 11.6643 22.2369 9.86991 21.2171 8.34361C20.1972 6.81732 18.7477 5.62772 17.0518 4.92524C15.3559 4.22277 13.4897 4.03897 11.6893 4.39709C9.88894 4.75521 8.23518 5.63916 6.93717 6.93717C5.63916 8.23517 4.75521 9.88893 4.39709 11.6893C4.03897 13.4897 4.22277 15.3559 4.92525 17.0518C5.62772 18.7477 6.81733 20.1972 8.34362 21.2171C9.86991 22.2369 11.6643 22.7813 13.5 22.7813C15.9607 22.7785 18.3198 21.7997 20.0598 20.0598C21.7997 18.3198 22.7785 15.9607 22.7813 13.5Z" fill="white"/>
</svg>
