<svg width="27" height="27" viewBox="0 0 27 27" fill="none" xmlns="http://www.w3.org/2000/svg">
<path d="M5.625 13.5C5.32663 13.5 5.04048 13.6185 4.82951 13.8295C4.61853 14.0405 4.5 14.3266 4.5 14.625V23.625C4.5 23.9234 4.61853 24.2095 4.82951 24.4205C5.04048 24.6315 5.32663 24.75 5.625 24.75C5.92337 24.75 6.20952 24.6315 6.42049 24.4205C6.63147 24.2095 6.75 23.9234 6.75 23.625V14.625C6.75 14.3266 6.63147 14.0405 6.42049 13.8295C6.20952 13.6185 5.92337 13.5 5.625 13.5ZM11.25 2.25C10.9516 2.25 10.6655 2.36853 10.4545 2.5795C10.2435 2.79048 10.125 3.07663 10.125 3.375V23.625C10.125 23.9234 10.2435 24.2095 10.4545 24.4205C10.6655 24.6315 10.9516 24.75 11.25 24.75C11.5484 24.75 11.8345 24.6315 12.0455 24.4205C12.2565 24.2095 12.375 23.9234 12.375 23.625V3.375C12.375 3.07663 12.2565 2.79048 12.0455 2.5795C11.8345 2.36853 11.5484 2.25 11.25 2.25ZM22.5 18C22.2016 18 21.9155 18.1185 21.7045 18.3295C21.4935 18.5405 21.375 18.8266 21.375 19.125V23.625C21.375 23.9234 21.4935 24.2095 21.7045 24.4205C21.9155 24.6315 22.2016 24.75 22.5 24.75C22.7984 24.75 23.0845 24.6315 23.2955 24.4205C23.5065 24.2095 23.625 23.9234 23.625 23.625V19.125C23.625 18.8266 23.5065 18.5405 23.2955 18.3295C23.0845 18.1185 22.7984 18 22.5 18ZM16.875 9C16.5766 9 16.2905 9.11853 16.0795 9.3295C15.8685 9.54048 15.75 9.82663 15.75 10.125V23.625C15.75 23.9234 15.8685 24.2095 16.0795 24.4205C16.2905 24.6315 16.5766 24.75 16.875 24.75C17.1734 24.75 17.4595 24.6315 17.6705 24.4205C17.8815 24.2095 18 23.9234 18 23.625V10.125C18 9.82663 17.8815 9.54048 17.6705 9.3295C17.4595 9.11853 17.1734 9 16.875 9Z" fill="#4A72FF"/>
</svg>
