<svg width="10" height="6" viewBox="0 0 10 6" fill="none" xmlns="http://www.w3.org/2000/svg">
<path d="M0.226914 0.46959C0.36756 0.328987 0.558291 0.25 0.757164 0.25C0.956037 0.25 1.14677 0.328987 1.28741 0.46959L4.99991 4.18209L8.71241 0.46959C8.85387 0.332971 9.04332 0.257375 9.23997 0.259084C9.43661 0.260793 9.62472 0.33967 9.76378 0.478726C9.90283 0.617782 9.98171 0.805891 9.98342 1.00254C9.98513 1.19919 9.90953 1.38864 9.77291 1.53009L5.53016 5.77284C5.38952 5.91344 5.19879 5.99243 4.99991 5.99243C4.80104 5.99243 4.61031 5.91344 4.46966 5.77284L0.226914 1.53009C0.0863108 1.38944 0.00732422 1.19871 0.00732422 0.99984C0.00732422 0.800967 0.0863108 0.610236 0.226914 0.46959Z" fill="white"/>
</svg>
