<svg width="27" height="27" viewBox="0 0 27 27" fill="none" xmlns="http://www.w3.org/2000/svg">
<path d="M13.815 12.2324C12.9715 12.2235 12.1494 11.9653 11.4523 11.4901C10.7553 11.015 10.2143 10.3443 9.89767 9.56241C9.58099 8.78052 9.50273 7.92241 9.67273 7.09613C9.84273 6.26985 10.2534 5.51233 10.853 4.91895C11.4526 4.32558 12.2144 3.92287 13.0424 3.76153C13.8704 3.60019 14.7277 3.68744 15.5062 4.01228C16.2848 4.33713 16.9498 4.88505 17.4176 5.58706C17.8853 6.28908 18.135 7.11379 18.135 7.95738C18.1271 9.09654 17.668 10.1861 16.8582 10.9874C16.0485 11.7887 14.9542 12.2364 13.815 12.2324ZM13.815 5.18238C13.2682 5.19125 12.7362 5.36151 12.2858 5.67177C11.8354 5.98203 11.4867 6.41846 11.2836 6.92625C11.0804 7.43403 11.0318 7.99052 11.1439 8.52582C11.256 9.06112 11.5238 9.55135 11.9136 9.93496C12.3035 10.3186 12.798 10.5784 13.335 10.6819C13.872 10.7854 14.4277 10.7279 14.9321 10.5166C15.4366 10.3053 15.8673 9.94963 16.1703 9.49431C16.4733 9.03899 16.635 8.50429 16.635 7.95738C16.6271 7.21606 16.326 6.50801 15.7976 5.98802C15.2692 5.46803 14.5564 5.17838 13.815 5.18238Z" fill="#4A72FF"/>
<path d="M13.815 12.2324C12.9714 12.2235 12.1494 11.9653 11.4523 11.4901C10.7552 11.015 10.2143 10.3443 9.89762 9.56241C9.58094 8.78052 9.50268 7.92241 9.67268 7.09613C9.84268 6.26985 10.2533 5.51233 10.853 4.91895C11.4526 4.32558 12.2144 3.92287 13.0424 3.76153C13.8704 3.60019 14.7276 3.68744 15.5062 4.01228C16.2847 4.33713 16.9497 4.88505 17.4175 5.58706C17.8853 6.28908 18.1349 7.11379 18.135 7.95738C18.127 9.09654 17.6679 10.1861 16.8582 10.9874C16.0485 11.7887 14.9541 12.2364 13.815 12.2324ZM13.815 5.18238C13.2681 5.19125 12.7361 5.36151 12.2857 5.67177C11.8353 5.98203 11.4867 6.41846 11.2835 6.92625C11.0804 7.43403 11.0318 7.99052 11.1439 8.52582C11.256 9.06112 11.5238 9.55135 11.9136 9.93496C12.3034 10.3186 12.7979 10.5784 13.3349 10.6819C13.872 10.7854 14.4276 10.7279 14.9321 10.5166C15.4365 10.3053 15.8673 9.94963 16.1702 9.49431C16.4732 9.03899 16.6349 8.50429 16.635 7.95738C16.6271 7.21606 16.326 6.50801 15.7976 5.98802C15.2691 5.46803 14.5563 5.17838 13.815 5.18238ZM16.4325 13.2374C13.1059 12.6585 9.68124 13.1854 6.68247 14.7374C6.4696 14.8556 6.29334 15.03 6.17297 15.2417C6.05259 15.4533 5.99275 15.694 5.99997 15.9374V18.6074C5.99997 18.8063 6.07899 18.9971 6.21964 19.1377C6.3603 19.2784 6.55106 19.3574 6.74997 19.3574C6.94889 19.3574 7.13965 19.2784 7.2803 19.1377C7.42096 18.9971 7.49997 18.8063 7.49997 18.6074V16.0349C10.2807 14.6396 13.443 14.1969 16.5 14.7749L16.4325 13.2374Z" fill="#4A72FF"/>
<path d="M24.75 16.4996H19.725V15.3896C19.725 15.1907 19.646 15 19.5053 14.8593C19.3647 14.7187 19.1739 14.6396 18.975 14.6396C18.7761 14.6396 18.5853 14.7187 18.4447 14.8593C18.304 15 18.225 15.1907 18.225 15.3896V16.4996H12.75C12.5511 16.4996 12.3603 16.5787 12.2197 16.7193C12.079 16.86 12 17.0507 12 17.2496V24.7496C12 24.9486 12.079 25.1393 12.2197 25.28C12.3603 25.4206 12.5511 25.4996 12.75 25.4996H24.75C24.9489 25.4996 25.1397 25.4206 25.2803 25.28C25.421 25.1393 25.5 24.9486 25.5 24.7496V17.2496C25.5 17.0507 25.421 16.86 25.2803 16.7193C25.1397 16.5787 24.9489 16.4996 24.75 16.4996ZM24 23.9996H13.5V17.9996H18.225V18.3071C18.225 18.5061 18.304 18.6968 18.4447 18.8375C18.5853 18.9781 18.7761 19.0571 18.975 19.0571C19.1739 19.0571 19.3647 18.9781 19.5053 18.8375C19.646 18.6968 19.725 18.5061 19.725 18.3071V17.9996H24V23.9996Z" fill="#4A72FF"/>
<path d="M16.3575 20.5646H20.8275V21.6146H16.3575V20.5646ZM8.13 9.1796C6.05358 9.21434 4.01317 9.72765 2.1675 10.6796C1.96677 10.7856 1.79863 10.9442 1.68106 11.1384C1.56349 11.3326 1.50091 11.5551 1.5 11.7821V14.1071C1.5 14.306 1.57902 14.4968 1.71967 14.6374C1.86032 14.7781 2.05109 14.8571 2.25 14.8571C2.44891 14.8571 2.63968 14.7781 2.78033 14.6374C2.92098 14.4968 3 14.306 3 14.1071V11.9321C4.76347 11.0543 6.71592 10.6242 8.685 10.6796C8.42737 10.2096 8.24037 9.70413 8.13 9.1796ZM24.8325 10.6721C23.1771 9.80376 21.3579 9.29273 19.4925 9.1721C19.3827 9.6957 19.1983 10.2008 18.945 10.6721C20.7023 10.7142 22.4285 11.1444 24 11.9321V14.1071C24 14.306 24.079 14.4968 24.2197 14.6374C24.3603 14.7781 24.5511 14.8571 24.75 14.8571C24.9489 14.8571 25.1397 14.7781 25.2803 14.6374C25.421 14.4968 25.5 14.306 25.5 14.1071V11.7821C25.5005 11.5538 25.4385 11.3298 25.3209 11.1341C25.2032 10.9385 25.0344 10.7787 24.8325 10.6721ZM7.995 7.9571V7.4546C7.40746 7.37597 6.87289 7.07378 6.50255 6.61092C6.13222 6.14807 5.95467 5.56021 6.00685 4.96974C6.05904 4.37927 6.33694 3.83167 6.78271 3.44094C7.22849 3.05021 7.80778 2.84646 8.4 2.8721C9.01599 2.87098 9.60805 3.1105 10.05 3.5396C10.4399 3.21799 10.8682 2.94591 11.325 2.7296C10.8147 2.14284 10.1386 1.72448 9.38579 1.52965C8.63298 1.33483 7.8388 1.37268 7.10793 1.63823C6.37706 1.90378 5.74381 2.38455 5.29165 3.01719C4.83948 3.64983 4.58962 4.40462 4.575 5.1821C4.59074 6.13367 4.96065 7.04519 5.61248 7.73862C6.2643 8.43205 7.15123 8.85759 8.1 8.9321C8.03638 8.61082 8.00124 8.28456 7.995 7.9571ZM18.5775 1.3721C18.0621 1.37221 17.5519 1.47508 17.0767 1.67468C16.6015 1.87429 16.1709 2.16662 15.81 2.5346C16.317 2.71833 16.7965 2.97068 17.235 3.2846C17.5851 3.04155 17.9947 2.89807 18.4199 2.86948C18.8452 2.84089 19.2703 2.92825 19.6498 3.12224C20.0293 3.31624 20.3491 3.60959 20.575 3.97103C20.8009 4.33248 20.9244 4.74845 20.9325 5.1746C20.9278 5.61233 20.7992 6.03977 20.5616 6.40743C20.324 6.7751 19.9871 7.06796 19.59 7.2521C19.6202 7.48337 19.6352 7.71637 19.635 7.9496C19.633 8.25107 19.6079 8.55195 19.56 8.8496C20.377 8.63955 21.1017 8.16528 21.6212 7.50062C22.1408 6.83596 22.426 6.01819 22.4325 5.1746C22.4226 4.16008 22.0116 3.1907 21.2893 2.47823C20.567 1.76575 19.5921 1.36809 18.5775 1.3721Z" fill="#4A72FF"/>
</svg>
