<svg width="27" height="27" viewBox="0 0 27 27" fill="none" xmlns="http://www.w3.org/2000/svg">
<g clip-path="url(#clip0_2271_8180)">
<path d="M8.69995 13.5C8.69995 10.7821 10.8571 8.625 13.575 8.625C16.2928 8.625 18.45 10.7821 18.45 13.5C18.45 16.2179 16.2928 18.375 13.575 18.375C10.8571 18.375 8.69995 16.2179 8.69995 13.5ZM9.44995 13.5C9.44995 15.8071 11.2678 17.625 13.575 17.625C15.8821 17.625 17.7 15.8071 17.7 13.5C17.7 11.1929 15.8821 9.375 13.575 9.375C11.2678 9.375 9.44995 11.1929 9.44995 13.5Z" fill="#4A72FF" stroke="#4A72FF" stroke-width="0.75"/>
<path d="M24.6 11.025L22.5 10.35L22.05 9.225L23.1 7.275C23.325 6.825 23.25 6.225 22.875 5.85L21.075 4.05C20.7 3.675 20.1 3.6 19.65 3.825L17.7 4.875L16.575 4.425L15.9 2.325C15.75 1.875 15.3 1.5 14.775 1.5H12.225C11.7 1.5 11.25 1.875 11.175 2.4L10.5 4.5C10.05 4.575 9.675 4.725 9.3 4.95L7.35 3.9C6.9 3.675 6.3 3.75 5.925 4.125L4.125 5.925C3.75 6.3 3.675 6.9 3.9 7.35L4.875 9.225C4.725 9.6 4.575 10.05 4.425 10.425L2.325 11.1C1.875 11.25 1.5 11.7 1.5 12.225V14.775C1.5 15.3 1.875 15.75 2.4 15.9L4.5 16.575L4.95 17.7L3.9 19.65C3.675 20.1 3.75 20.7 4.125 21.075L5.925 22.875C6.3 23.25 6.9 23.325 7.35 23.1L9.3 22.05L10.425 22.5L11.1 24.675C11.25 25.125 11.7 25.5 12.225 25.5H14.775C15.3 25.5 15.75 25.125 15.9 24.675L16.575 22.5L17.7 22.05L19.65 23.1C20.1 23.325 20.7 23.25 21.075 22.875L22.875 21.075C23.25 20.7 23.325 20.1 23.1 19.65L22.05 17.7L22.5 16.575L24.675 15.9C25.125 15.75 25.5 15.3 25.5 14.775V12.225C25.5 11.7 25.125 11.175 24.6 11.025ZM24 14.55L21.3 15.375L21.225 15.75L20.55 17.325L20.325 17.7L21.675 20.175L20.175 21.675L17.7 20.325L17.325 20.55C16.8 20.85 16.275 21.075 15.75 21.225L15.375 21.3L14.55 24H12.45L11.625 21.3L11.25 21.225L9.675 20.55L9.3 20.325L6.825 21.675L5.325 20.175L6.675 17.7L6.45 17.325C6.15 16.8 5.925 16.275 5.775 15.75L5.7 15.375L3 14.55V12.45L5.55 11.7L5.7 11.325C5.85 10.725 6.075 10.2 6.375 9.675L6.6 9.3L5.325 6.825L6.825 5.325L9.225 6.675L9.6 6.45C10.125 6.15 10.65 5.925 11.25 5.775L11.625 5.625L12.45 3H14.55L15.375 5.625L15.75 5.775C16.275 5.925 16.8 6.15 17.325 6.45L17.7 6.675L20.175 5.325L21.675 6.825L20.325 9.3L20.55 9.675C20.85 10.2 21.075 10.725 21.225 11.25L21.3 11.625L24 12.45V14.55Z" fill="#4A72FF"/>
</g>
<defs>
<clipPath id="clip0_2271_8180">
<rect width="27" height="27" fill="white"/>
</clipPath>
</defs>
</svg>
