<svg width="27" height="27" viewBox="0 0 27 27" fill="none" xmlns="http://www.w3.org/2000/svg">
<path d="M24.4603 25.3125V14.3269C24.4603 13.8712 24.0891 13.4916 23.625 13.4916H16.875V10.125H18.5625V11.1291C18.5625 11.5087 18.8662 11.8125 19.2375 11.8125H22.0978C22.4775 11.8125 22.7812 11.5087 22.7812 11.1375V4.05844C22.7812 3.67875 22.4775 3.375 22.1063 3.375H19.2459C18.8662 3.375 18.5625 3.67875 18.5625 4.05844V5.0625H16.875V2.46375C16.875 2.03344 16.5291 1.6875 16.0988 1.6875H3.3075C2.87719 1.6875 2.53125 2.03344 2.53125 2.46375V25.2956H4.20187V21.1191C4.20187 20.6381 4.59 20.25 5.07094 20.25H14.3184C14.7994 20.25 15.1875 20.6381 15.1875 21.1191V25.3125H14.3522V21.3891C14.3522 21.2288 14.2256 21.0938 14.0569 21.0938H12.1331C11.9728 21.0938 11.8378 21.2203 11.8378 21.3891V25.3125H9.28125H24.4603ZM16.875 22.7897V20.25H18.1406C18.3769 20.25 18.5625 20.4441 18.5625 20.6719V22.3594C18.5625 22.5956 18.3769 22.7812 18.1406 22.7897H16.875ZM16.875 18.5709V16.0312H18.1406C18.3769 16.0312 18.5625 16.2253 18.5625 16.4531V18.1406C18.5625 18.3769 18.3769 18.5625 18.1406 18.5709H16.875ZM18.5625 9.28125H16.875V5.90625H18.5625V9.28125ZM22.7812 16.4531V18.1406C22.7812 18.3769 22.5956 18.5625 22.3594 18.5709H20.655C20.4187 18.5709 20.2331 18.3769 20.2331 18.1491V16.4531C20.2331 16.2169 20.4272 16.0312 20.655 16.0312H22.3594C22.5956 16.0312 22.7812 16.2253 22.7812 16.4531ZM22.7812 20.6719V22.3594C22.7812 22.5956 22.5956 22.7812 22.3594 22.7897H20.655C20.4187 22.7897 20.2331 22.5956 20.2331 22.3678V20.6719C20.2331 20.4356 20.4272 20.25 20.655 20.25H22.3594C22.5956 20.25 22.7812 20.4441 22.7812 20.6719ZM10.9772 3.79688V5.48438C10.9772 5.72062 10.7916 5.90625 10.5553 5.90625H8.85094C8.61469 5.90625 8.42906 5.71219 8.42906 5.48438V3.79688C8.42906 3.56062 8.62312 3.375 8.85094 3.375H10.5553C10.7916 3.375 10.9772 3.56906 10.9772 3.79688ZM10.9772 9.70312C10.9772 9.93937 10.7916 10.125 10.5553 10.125H8.85094C8.61469 10.125 8.42906 9.93094 8.42906 9.70312V8.01562C8.42906 7.77938 8.62312 7.59375 8.85094 7.59375H10.5553C10.7916 7.59375 10.9772 7.78781 10.9772 8.01562V9.70312ZM10.9772 12.2344V13.9219C10.9772 14.1581 10.7916 14.3438 10.5553 14.3522H8.85094C8.61469 14.3522 8.42906 14.1581 8.42906 13.9303V12.2344C8.42906 11.9981 8.62312 11.8125 8.85094 11.8125H10.5553C10.7916 11.8125 10.9772 12.0066 10.9772 12.2344ZM10.9772 16.4531V18.1406C10.9772 18.3769 10.7916 18.5625 10.5553 18.5709H8.85094C8.61469 18.5709 8.42906 18.3769 8.42906 18.1491V16.4531C8.42906 16.2169 8.62312 16.0312 8.85094 16.0312H10.5553C10.7916 16.0312 10.9772 16.2253 10.9772 16.4531ZM15.2044 18.1406C15.2044 18.3769 15.0103 18.5625 14.7825 18.5709H13.0781C12.8419 18.5709 12.6562 18.3769 12.6562 18.1491V16.4531C12.6562 16.2169 12.8503 16.0312 13.0781 16.0312H14.7825C15.0188 16.0312 15.2044 16.2253 15.2044 16.4531V18.1406ZM15.2044 12.2344V13.9219C15.2044 14.1581 15.0103 14.3438 14.7825 14.3522H13.0781C12.8419 14.3522 12.6562 14.1581 12.6562 13.9303V12.2344C12.6562 11.9981 12.8503 11.8125 13.0781 11.8125H14.7825C15.0188 11.8125 15.2044 12.0066 15.2044 12.2344ZM15.2044 9.70312C15.2044 9.93937 15.0103 10.125 14.7825 10.125H13.0781C12.8419 10.125 12.6562 9.93094 12.6562 9.70312V8.01562C12.6562 7.77938 12.8419 7.59375 13.0781 7.59375H14.7825C15.0188 7.59375 15.2044 7.78781 15.2044 8.01562V9.70312ZM15.2044 3.79688V5.48438C15.2044 5.72062 15.0103 5.90625 14.7825 5.90625H13.0781C12.8419 5.90625 12.6562 5.72062 12.6562 5.48438V3.79688C12.6562 3.56062 12.8419 3.375 13.0781 3.375H14.7825C15.0188 3.375 15.2044 3.56906 15.2044 3.79688ZM6.75844 18.1406C6.75844 18.3769 6.57281 18.5625 6.33656 18.5709H4.63219C4.39594 18.5709 4.21031 18.3769 4.21031 18.1491V16.4531C4.21031 16.2169 4.40437 16.0312 4.63219 16.0312H6.33656C6.57281 16.0312 6.75844 16.2253 6.75844 16.4531V18.1406ZM6.75844 12.2344V13.9219C6.75844 14.1581 6.57281 14.3438 6.33656 14.3522H4.63219C4.39594 14.3522 4.21031 14.1581 4.21031 13.9303V12.2344C4.21031 11.9981 4.40437 11.8125 4.63219 11.8125H6.33656C6.57281 11.8125 6.75844 12.0066 6.75844 12.2344ZM6.75844 9.70312C6.75844 9.93937 6.57281 10.125 6.33656 10.125H4.63219C4.39594 10.125 4.21031 9.93094 4.21031 9.70312V8.01562C4.21031 7.77938 4.40437 7.59375 4.63219 7.59375H6.33656C6.57281 7.59375 6.75844 7.78781 6.75844 8.01562V9.70312ZM6.75844 3.79688V5.48438C6.75844 5.72062 6.57281 5.90625 6.33656 5.90625H4.63219C4.39594 5.90625 4.21031 5.71219 4.21031 5.48438V3.79688C4.21031 3.56062 4.40437 3.375 4.63219 3.375H6.33656C6.57281 3.375 6.75844 3.56906 6.75844 3.79688Z" fill="#4A72FF"/>
<path d="M10.9688 25.3125H8.45438V21.3891C8.45438 21.2203 8.58938 21.0938 8.74969 21.0938H10.6734C10.8337 21.0938 10.9688 21.2203 10.9688 21.3891V25.3125ZM7.57687 21.3891V25.3125H5.0625V21.3891C5.0625 21.2203 5.18906 21.0938 5.35781 21.0938H7.28156C7.45031 21.0938 7.57687 21.2288 7.57687 21.3891Z" fill="white"/>
</svg>
