<svg width="23" height="25" viewBox="0 0 23 25" fill="none" xmlns="http://www.w3.org/2000/svg">
<path d="M22.4603 24.3125V13.3269C22.4603 12.8712 22.0891 12.4916 21.625 12.4916H14.875V9.125H16.5625V10.1291C16.5625 10.5087 16.8662 10.8125 17.2375 10.8125H20.0978C20.4775 10.8125 20.7812 10.5087 20.7812 10.1375V3.05844C20.7812 2.67875 20.4775 2.375 20.1063 2.375H17.2459C16.8662 2.375 16.5625 2.67875 16.5625 3.05844V4.0625H14.875V1.46375C14.875 1.03344 14.5291 0.6875 14.0988 0.6875H1.3075C0.877188 0.6875 0.53125 1.03344 0.53125 1.46375V24.2956H2.20187V20.1191C2.20187 19.6381 2.59 19.25 3.07094 19.25H12.3184C12.7994 19.25 13.1875 19.6381 13.1875 20.1191V24.3125H12.3522V20.3891C12.3522 20.2288 12.2256 20.0938 12.0569 20.0938H10.1331C9.97281 20.0938 9.83781 20.2203 9.83781 20.3891V24.3125H7.28125H22.4603ZM14.875 21.7897V19.25H16.1406C16.3769 19.25 16.5625 19.4441 16.5625 19.6719V21.3594C16.5625 21.5956 16.3769 21.7812 16.1406 21.7897H14.875ZM14.875 17.5709V15.0312H16.1406C16.3769 15.0312 16.5625 15.2253 16.5625 15.4531V17.1406C16.5625 17.3769 16.3769 17.5625 16.1406 17.5709H14.875ZM16.5625 8.28125H14.875V4.90625H16.5625V8.28125ZM20.7812 15.4531V17.1406C20.7812 17.3769 20.5956 17.5625 20.3594 17.5709H18.655C18.4187 17.5709 18.2331 17.3769 18.2331 17.1491V15.4531C18.2331 15.2169 18.4272 15.0312 18.655 15.0312H20.3594C20.5956 15.0312 20.7812 15.2253 20.7812 15.4531ZM20.7812 19.6719V21.3594C20.7812 21.5956 20.5956 21.7812 20.3594 21.7897H18.655C18.4187 21.7897 18.2331 21.5956 18.2331 21.3678V19.6719C18.2331 19.4356 18.4272 19.25 18.655 19.25H20.3594C20.5956 19.25 20.7812 19.4441 20.7812 19.6719ZM8.97719 2.79688V4.48438C8.97719 4.72062 8.79156 4.90625 8.55531 4.90625H6.85094C6.61469 4.90625 6.42906 4.71219 6.42906 4.48438V2.79688C6.42906 2.56062 6.62312 2.375 6.85094 2.375H8.55531C8.79156 2.375 8.97719 2.56906 8.97719 2.79688ZM8.97719 8.70312C8.97719 8.93937 8.79156 9.125 8.55531 9.125H6.85094C6.61469 9.125 6.42906 8.93094 6.42906 8.70312V7.01562C6.42906 6.77938 6.62312 6.59375 6.85094 6.59375H8.55531C8.79156 6.59375 8.97719 6.78781 8.97719 7.01562V8.70312ZM8.97719 11.2344V12.9219C8.97719 13.1581 8.79156 13.3438 8.55531 13.3522H6.85094C6.61469 13.3522 6.42906 13.1581 6.42906 12.9303V11.2344C6.42906 10.9981 6.62312 10.8125 6.85094 10.8125H8.55531C8.79156 10.8125 8.97719 11.0066 8.97719 11.2344ZM8.97719 15.4531V17.1406C8.97719 17.3769 8.79156 17.5625 8.55531 17.5709H6.85094C6.61469 17.5709 6.42906 17.3769 6.42906 17.1491V15.4531C6.42906 15.2169 6.62312 15.0312 6.85094 15.0312H8.55531C8.79156 15.0312 8.97719 15.2253 8.97719 15.4531ZM13.2044 17.1406C13.2044 17.3769 13.0103 17.5625 12.7825 17.5709H11.0781C10.8419 17.5709 10.6562 17.3769 10.6562 17.1491V15.4531C10.6562 15.2169 10.8503 15.0312 11.0781 15.0312H12.7825C13.0188 15.0312 13.2044 15.2253 13.2044 15.4531V17.1406ZM13.2044 11.2344V12.9219C13.2044 13.1581 13.0103 13.3438 12.7825 13.3522H11.0781C10.8419 13.3522 10.6562 13.1581 10.6562 12.9303V11.2344C10.6562 10.9981 10.8503 10.8125 11.0781 10.8125H12.7825C13.0188 10.8125 13.2044 11.0066 13.2044 11.2344ZM13.2044 8.70312C13.2044 8.93937 13.0103 9.125 12.7825 9.125H11.0781C10.8419 9.125 10.6562 8.93094 10.6562 8.70312V7.01562C10.6562 6.77938 10.8419 6.59375 11.0781 6.59375H12.7825C13.0188 6.59375 13.2044 6.78781 13.2044 7.01562V8.70312ZM13.2044 2.79688V4.48438C13.2044 4.72062 13.0103 4.90625 12.7825 4.90625H11.0781C10.8419 4.90625 10.6562 4.72062 10.6562 4.48438V2.79688C10.6562 2.56062 10.8419 2.375 11.0781 2.375H12.7825C13.0188 2.375 13.2044 2.56906 13.2044 2.79688ZM4.75844 17.1406C4.75844 17.3769 4.57281 17.5625 4.33656 17.5709H2.63219C2.39594 17.5709 2.21031 17.3769 2.21031 17.1491V15.4531C2.21031 15.2169 2.40437 15.0312 2.63219 15.0312H4.33656C4.57281 15.0312 4.75844 15.2253 4.75844 15.4531V17.1406ZM4.75844 11.2344V12.9219C4.75844 13.1581 4.57281 13.3438 4.33656 13.3522H2.63219C2.39594 13.3522 2.21031 13.1581 2.21031 12.9303V11.2344C2.21031 10.9981 2.40437 10.8125 2.63219 10.8125H4.33656C4.57281 10.8125 4.75844 11.0066 4.75844 11.2344ZM4.75844 8.70312C4.75844 8.93937 4.57281 9.125 4.33656 9.125H2.63219C2.39594 9.125 2.21031 8.93094 2.21031 8.70312V7.01562C2.21031 6.77938 2.40437 6.59375 2.63219 6.59375H4.33656C4.57281 6.59375 4.75844 6.78781 4.75844 7.01562V8.70312ZM4.75844 2.79688V4.48438C4.75844 4.72062 4.57281 4.90625 4.33656 4.90625H2.63219C2.39594 4.90625 2.21031 4.71219 2.21031 4.48438V2.79688C2.21031 2.56062 2.40437 2.375 2.63219 2.375H4.33656C4.57281 2.375 4.75844 2.56906 4.75844 2.79688Z" fill="white"/>
<path d="M8.96875 24.3125H6.45438V20.3891C6.45438 20.2203 6.58938 20.0938 6.74969 20.0938H8.67344C8.83375 20.0938 8.96875 20.2203 8.96875 20.3891V24.3125ZM5.57687 20.3891V24.3125H3.0625V20.3891C3.0625 20.2203 3.18906 20.0938 3.35781 20.0938H5.28156C5.45031 20.0938 5.57687 20.2288 5.57687 20.3891Z" fill="white"/>
</svg>
