<svg width="27" height="27" viewBox="0 0 27 27" fill="none" xmlns="http://www.w3.org/2000/svg">
<path d="M12.6562 12.6562L12.7024 12.6337C12.8466 12.5617 13.0085 12.5325 13.1689 12.5496C13.3292 12.5666 13.4813 12.6293 13.6071 12.7302C13.733 12.831 13.8273 12.9658 13.8789 13.1186C13.9305 13.2714 13.9372 13.4358 13.8983 13.5922L13.1017 16.7828C13.0625 16.9393 13.0691 17.1038 13.1205 17.2568C13.172 17.4098 13.2663 17.5448 13.3922 17.6458C13.518 17.7468 13.6703 17.8096 13.8307 17.8267C13.9912 17.8438 14.1533 17.8146 14.2976 17.7424L14.3438 17.7188M23.625 13.5C23.625 14.8296 23.3631 16.1462 22.8543 17.3747C22.3455 18.6031 21.5996 19.7193 20.6595 20.6595C19.7193 21.5996 18.6031 22.3455 17.3747 22.8543C16.1462 23.3631 14.8296 23.625 13.5 23.625C12.1704 23.625 10.8538 23.3631 9.62533 22.8543C8.39691 22.3455 7.28074 21.5996 6.34054 20.6595C5.40035 19.7193 4.65455 18.6031 4.14572 17.3747C3.63689 16.1462 3.375 14.8296 3.375 13.5C3.375 10.8147 4.44174 8.23935 6.34054 6.34054C8.23935 4.44174 10.8147 3.375 13.5 3.375C16.1853 3.375 18.7606 4.44174 20.6595 6.34054C22.5583 8.23935 23.625 10.8147 23.625 13.5ZM13.5 9.28125H13.509V9.29025H13.5V9.28125Z" stroke="white" stroke-width="1.6875" stroke-linecap="round" stroke-linejoin="round"/>
</svg>
