<svg width="25" height="25" viewBox="0 0 25 25" fill="none" xmlns="http://www.w3.org/2000/svg">
<g clip-path="url(#clip0_9203_4723)">
<path fill-rule="evenodd" clip-rule="evenodd" d="M15.8683 11.6356C12.4175 11.6356 9.62005 14.4331 9.62005 17.8838C9.62005 18.4724 9.70156 19.0421 9.85376 19.5821C9.85775 19.5961 9.85511 19.6099 9.84632 19.6216C9.83749 19.6332 9.82496 19.6395 9.81032 19.6395H3.83245V19.6408H3.53404C3.51637 19.6408 3.5013 19.6314 3.49352 19.6156C3.48575 19.5997 3.48757 19.582 3.49837 19.5681C4.05954 18.8435 4.09189 18.2981 4.12405 17.7521C4.13264 17.6066 4.14124 17.461 4.16149 17.322C4.16168 17.3207 4.16188 17.3195 4.16221 17.3182C4.16797 17.2935 4.17104 17.2677 4.17104 17.2412V4.04773C4.17104 3.17787 4.88394 2.46498 5.7538 2.46498H16.8923V2.46363H17.1009C17.1191 2.46363 17.1346 2.47376 17.1421 2.49042C17.1495 2.50707 17.1466 2.52541 17.1344 2.53895C16.7739 2.9396 16.5538 3.46909 16.5538 4.04768V11.6227C16.5538 11.636 16.5488 11.6473 16.5389 11.6562C16.5291 11.6651 16.5173 11.6689 16.5041 11.6676C16.295 11.6465 16.0829 11.6356 15.8683 11.6356ZM12.4564 11.1761H9.68212C9.49516 11.1761 9.34357 11.3276 9.34357 11.5146C9.34357 11.7016 9.49516 11.8532 9.68212 11.8532H12.4564C12.6434 11.8532 12.795 11.7016 12.795 11.5146C12.795 11.3276 12.6434 11.1761 12.4564 11.1761ZM15.3967 9.72963H9.68212C9.49516 9.72963 9.34357 9.88122 9.34357 10.0682C9.34357 10.2551 9.49516 10.4067 9.68212 10.4067H15.3967C15.5837 10.4067 15.7353 10.2551 15.7353 10.0682C15.7353 9.88122 15.5837 9.72963 15.3967 9.72963ZM9.68212 5.96672H15.3967C15.5837 5.96672 15.7353 5.81514 15.7353 5.62818C15.7353 5.44122 15.5837 5.28963 15.3967 5.28963H9.68212C9.49516 5.28963 9.34357 5.44122 9.34357 5.62818C9.34357 5.81514 9.49516 5.96672 9.68212 5.96672ZM9.34357 7.07456C9.34357 7.26152 9.49516 7.41311 9.68212 7.41311H12.4564C12.6434 7.41311 12.795 7.26152 12.795 7.07456C12.795 6.8876 12.6434 6.73602 12.4564 6.73602H9.68212C9.49516 6.73602 9.34357 6.8876 9.34357 7.07456ZM7.83546 8.18312C8.32261 8.18312 8.71904 7.78674 8.71904 7.29954V5.4032C8.71904 4.91605 8.32266 4.51962 7.83546 4.51962H5.93912C5.45197 4.51962 5.05554 4.91605 5.05554 5.4032V7.29954C5.05554 7.78669 5.45192 8.18312 5.93912 8.18312H7.83546ZM7.72664 6.11283C7.8464 5.9697 7.82749 5.75653 7.68431 5.63677C7.54117 5.51701 7.328 5.53592 7.20824 5.67911L6.73434 6.24392C6.72608 6.25376 6.71528 6.25919 6.70242 6.25995C6.68956 6.26072 6.67823 6.25659 6.66887 6.24776L6.59404 6.17744C6.4582 6.04962 6.24445 6.05615 6.11663 6.19199C5.9888 6.32783 5.99533 6.54157 6.13117 6.66939L6.50149 7.01735C6.643 7.1504 6.86716 7.13691 6.99191 6.98811L6.9921 6.98826L7.72664 6.11283ZM8.45994 12.3641C8.61988 12.2041 8.71904 11.9832 8.71904 11.7396V9.84325C8.71904 9.3561 8.32266 8.95966 7.83546 8.95966H5.93912C5.45197 8.95966 5.05554 9.3561 5.05554 9.84325V11.7396C5.05554 12.2267 5.45192 12.6232 5.93912 12.6232H7.83546C8.07901 12.6231 8.29996 12.524 8.45994 12.3641ZM6.9789 11.4428C6.98341 11.438 6.98773 11.4331 6.99191 11.4281L6.9921 11.4283L7.72664 10.5528C7.8464 10.4097 7.82749 10.1965 7.68431 10.0768C7.54117 9.95701 7.328 9.97592 7.20824 10.1191L6.73434 10.6839C6.72608 10.6938 6.71528 10.6992 6.70242 10.7C6.68956 10.7007 6.67823 10.6966 6.66887 10.6878L6.59404 10.6174C6.4582 10.4896 6.24445 10.4961 6.11663 10.632C5.9888 10.7678 5.99533 10.9816 6.13117 11.1094L6.50149 11.4573C6.63733 11.5852 6.85108 11.5786 6.9789 11.4428ZM8.719 14.2832C8.719 13.7961 8.32261 13.3997 7.83541 13.3997H5.93908C5.45192 13.3997 5.05549 13.7961 5.05549 14.2832V16.1796C5.05549 16.6667 5.45188 17.0632 5.93908 17.0632H7.83541C8.32256 17.0632 8.719 16.6668 8.719 16.1796V14.2832ZM7.68431 14.5168C7.54117 14.397 7.328 14.4159 7.20824 14.5591L6.73434 15.1239C6.72608 15.1338 6.71528 15.1392 6.70242 15.14C6.68956 15.1407 6.67823 15.1366 6.66887 15.1278L6.59404 15.0574C6.4582 14.9296 6.24445 14.9361 6.11663 15.072C5.9888 15.2078 5.99533 15.4216 6.13117 15.5494L6.50149 15.8973C6.643 16.0304 6.86716 16.0169 6.99191 15.8681L6.9921 15.8683L7.72664 14.9928C7.8464 14.8497 7.82744 14.6365 7.68431 14.5168ZM3.49386 4.04773V17.2196C3.49386 17.222 3.49372 17.2239 3.49338 17.2262C3.46804 17.399 3.45877 17.5557 3.44956 17.7124C3.41629 18.2768 3.38303 18.8403 2.42792 19.7308C2.20717 19.9364 2.34368 20.3243 2.6769 20.3154C2.67733 20.3154 2.67767 20.3153 2.6781 20.3153L3.8324 20.3153V20.3166H10.0816C10.1 20.3166 10.1157 20.327 10.123 20.344C11.0921 22.6044 13.3264 24.132 15.8682 24.132C19.3189 24.132 22.1164 21.3345 22.1164 17.8838C22.1164 14.9407 20.0702 12.4335 17.2659 11.7927C17.2452 11.7879 17.2308 11.77 17.2308 11.7488V4.43139C17.2308 4.40653 17.2511 4.38627 17.276 4.38627H20.7349C20.9218 4.38627 21.0734 4.23469 21.0734 4.04773C21.0734 2.8041 20.0572 1.78784 18.8135 1.78784H17.5545V1.78919H16.8923V1.78784H5.75375C4.51012 1.78784 3.49386 2.8041 3.49386 4.04773ZM11.197 17.8838C11.197 19.7555 12.2978 21.37 13.8873 22.1154C13.9017 22.1221 13.9172 22.1211 13.9306 22.1126C13.944 22.104 13.9516 22.0904 13.9516 22.0745V18.6582C13.9516 18.6374 13.9381 18.6199 13.918 18.6146C13.2914 18.4479 12.837 17.8754 12.837 17.21V15.5999C12.837 15.413 12.9885 15.2614 13.1755 15.2614C13.3625 15.2614 13.5141 15.413 13.5141 15.5999V17.2099C13.5141 17.4839 13.6594 17.7303 13.8825 17.8692C13.8969 17.8781 13.9136 17.8785 13.9283 17.8703C13.943 17.8622 13.9515 17.8477 13.9515 17.8309V15.5999C13.9515 15.413 14.1031 15.2614 14.2901 15.2614C14.477 15.2614 14.6286 15.413 14.6286 15.5999V17.8309C14.6286 17.8478 14.6371 17.8622 14.6518 17.8704C14.6666 17.8785 14.6833 17.8782 14.6976 17.8692C14.9207 17.7304 15.0661 17.4839 15.0661 17.2099V15.5999C15.0661 15.413 15.2177 15.2614 15.4046 15.2614C15.5916 15.2614 15.7432 15.413 15.7432 15.5999V17.2099C15.7432 17.8753 15.2887 18.4479 14.6621 18.6145C14.6421 18.6199 14.6286 18.6374 14.6286 18.6581V22.2814C14.6286 22.3028 14.6265 22.3237 14.6228 22.3439C14.6184 22.3672 14.6326 22.3897 14.6555 22.3958C15.4912 22.6198 16.3808 22.6071 17.208 22.36C17.2307 22.3532 17.2442 22.3303 17.2392 22.3072C17.2342 22.284 17.2316 22.2598 17.2316 22.2351V18.6407C17.2316 18.6213 17.2199 18.6049 17.2017 18.5983C16.236 18.2506 15.9346 16.7097 16.5958 15.8006C17.119 15.0812 18.0213 15.0812 18.5445 15.8006C19.2057 16.7097 18.9043 18.2506 17.9386 18.5983C17.9204 18.6049 17.9087 18.6213 17.9087 18.6407V22.014C17.9087 22.0302 17.9165 22.044 17.9302 22.0525C17.944 22.0609 17.9599 22.0616 17.9743 22.0543C19.4961 21.2843 20.5395 19.706 20.5395 17.8838C20.5395 15.304 18.4481 13.2126 15.8682 13.2126C13.2884 13.2126 11.197 15.304 11.197 17.8838Z" fill="#637A6B"/>
</g>
<defs>
<clipPath id="clip0_9203_4723">
<rect width="24" height="24" fill="white" transform="translate(0.21875 0.959961)"/>
</clipPath>
</defs>
</svg>
