<svg width="27" height="27" viewBox="0 0 27 27" fill="none" xmlns="http://www.w3.org/2000/svg">
<path fill-rule="evenodd" clip-rule="evenodd" d="M5.62518 10.125C5.62518 5.77576 9.15094 2.25 13.5002 2.25C17.8495 2.25 21.3752 5.77576 21.3752 10.125V14.3594L23.425 18.4591C23.8364 19.2819 23.2381 20.25 22.3182 20.25H17.8582C17.3586 22.1908 15.5968 23.625 13.5 23.625C11.4032 23.625 9.64132 22.1908 9.14177 20.25H4.68221C3.76228 20.25 3.16395 19.2819 3.57536 18.4591L5.62518 14.3594V10.125ZM11.551 20.25C11.9401 20.9225 12.6672 21.375 13.5 21.375C14.3328 21.375 15.0599 20.9225 15.4489 20.25H11.551ZM13.5002 4.5C10.3936 4.5 7.87518 7.0184 7.87518 10.125V14.3594C7.87518 14.7087 7.79385 15.0532 7.63765 15.3657L6.32047 18H20.6799L19.3627 15.3657C19.2066 15.0532 19.1252 14.7087 19.1252 14.3594V10.125C19.1252 7.0184 16.6068 4.5 13.5002 4.5Z" fill="#4A72FF"/>
</svg>
