<svg width="25" height="25" viewBox="0 0 25 25" fill="none" xmlns="http://www.w3.org/2000/svg">
<path d="M19.2188 21.6001V15.6001M16.2188 18.6001H22.2188M22.2188 10.6001H2.21875M22.2188 12.6001V8.8001C22.2188 7.68 22.2187 7.11994 22.0007 6.69212C21.809 6.3158 21.5031 6.00984 21.1268 5.81809C20.699 5.6001 20.1388 5.6001 19.0187 5.6001H5.41875C4.29865 5.6001 3.73859 5.6001 3.31077 5.81809C2.93445 6.00983 2.62848 6.31579 2.43674 6.69212C2.21875 7.11994 2.21875 7.68 2.21875 8.8001V16.4001C2.21875 17.5202 2.21875 18.0803 2.43674 18.5081C2.62848 18.8844 2.93444 19.1904 3.31077 19.3821C3.73859 19.6001 4.29865 19.6001 5.41875 19.6001H12.2188" stroke="#637A6B" stroke-width="2" stroke-linecap="round" stroke-linejoin="round"/>
</svg>
