<svg width="25" height="25" viewBox="0 0 25 25" fill="none" xmlns="http://www.w3.org/2000/svg">
<path d="M11.7094 13.8099C13.2613 13.8099 14.5194 12.5519 14.5194 10.9999C14.5194 9.44802 13.2613 8.18994 11.7094 8.18994C10.1575 8.18994 8.89941 9.44802 8.89941 10.9999C8.89941 12.5519 10.1575 13.8099 11.7094 13.8099Z" stroke="white" stroke-width="1.5" stroke-linecap="round" stroke-linejoin="round"/>
<path d="M16.8995 20.2798C16.8995 17.9498 14.5795 16.0498 11.7095 16.0498C8.83953 16.0498 6.51953 17.9398 6.51953 20.2798" stroke="white" stroke-width="1.5" stroke-linecap="round" stroke-linejoin="round"/>
<path d="M21.25 12.5801C21.25 17.8301 17 22.0801 11.75 22.0801C6.5 22.0801 2.25 17.8301 2.25 12.5801C2.25 7.33008 6.5 3.08008 11.75 3.08008C13.06 3.08008 14.31 3.34007 15.45 3.82007C15.32 4.22007 15.25 4.64008 15.25 5.08008C15.25 5.83008 15.46 6.54008 15.83 7.14008C16.03 7.48008 16.29 7.79005 16.59 8.05005C17.29 8.69005 18.22 9.08008 19.25 9.08008C19.69 9.08008 20.11 9.01006 20.5 8.87006C20.98 10.0101 21.25 11.2701 21.25 12.5801Z" stroke="white" stroke-width="1.5" stroke-linecap="round" stroke-linejoin="round"/>
<path d="M23.25 5.08008C23.25 5.40008 23.21 5.71007 23.13 6.01007C23.04 6.41007 22.88 6.80008 22.67 7.14008C22.19 7.95008 21.42 8.58006 20.5 8.87006C20.11 9.01006 19.69 9.08008 19.25 9.08008C18.22 9.08008 17.29 8.69005 16.59 8.05005C16.29 7.79005 16.03 7.48008 15.83 7.14008C15.46 6.54008 15.25 5.83008 15.25 5.08008C15.25 4.64008 15.32 4.22007 15.45 3.82007C15.64 3.24007 15.96 2.7201 16.38 2.2901C17.11 1.5401 18.13 1.08008 19.25 1.08008C20.43 1.08008 21.5 1.5901 22.22 2.4101C22.86 3.1201 23.25 4.06008 23.25 5.08008Z" stroke="white" stroke-width="1.5" stroke-miterlimit="10" stroke-linecap="round" stroke-linejoin="round"/>
<path d="M20.7398 5.06006H17.7598" stroke="white" stroke-width="1.5" stroke-miterlimit="10" stroke-linecap="round" stroke-linejoin="round"/>
<path d="M19.25 3.6001V6.59009" stroke="white" stroke-width="1.5" stroke-miterlimit="10" stroke-linecap="round" stroke-linejoin="round"/>
</svg>
