<svg width="23" height="19" viewBox="0 0 23 19" fill="none" xmlns="http://www.w3.org/2000/svg">
<path d="M18.25 17.6006V11.6006M15.25 14.6006H21.25M21.25 6.60059H1.25M21.25 8.60059V4.80059C21.25 3.68049 21.25 3.12043 21.032 2.69261C20.8403 2.31629 20.5343 2.01033 20.158 1.81858C19.7302 1.60059 19.1701 1.60059 18.05 1.60059H4.45C3.3299 1.60059 2.76984 1.60059 2.34202 1.81858C1.9657 2.01032 1.65973 2.31628 1.46799 2.69261C1.25 3.12043 1.25 3.68049 1.25 4.80059V12.4006C1.25 13.5207 1.25 14.0808 1.46799 14.5086C1.65973 14.8849 1.96569 15.1909 2.34202 15.3826C2.76984 15.6006 3.3299 15.6006 4.45 15.6006H11.25" stroke="white" stroke-width="2" stroke-linecap="round" stroke-linejoin="round"/>
</svg>
