<svg width="25" height="25" viewBox="0 0 25 25" fill="none" xmlns="http://www.w3.org/2000/svg">
<g clip-path="url(#clip0_9137_2001)">
<path d="M0.656242 24.2122C0.787025 24.272 0.932218 24.2928 1.07453 24.2724C1.21684 24.2519 1.35027 24.191 1.45893 24.0968L7.06584 19.2389C7.49438 18.8522 8.05419 18.6434 8.63127 18.655H20.3271C21.3586 18.6539 22.3476 18.2436 23.0769 17.5142C23.8063 16.7848 24.2166 15.7959 24.2178 14.7644V4.17065C24.2166 3.13915 23.8063 2.15024 23.0769 1.42086C22.3476 0.691474 21.3586 0.281196 20.3271 0.280029L4.1084 0.280029C3.0769 0.281196 2.08798 0.691474 1.3586 1.42086C0.629218 2.15024 0.21894 3.13915 0.217773 4.17065L0.217773 23.53C0.217777 23.6738 0.259109 23.8146 0.336847 23.9355C0.414585 24.0565 0.525452 24.1525 0.656242 24.2122ZM1.71777 4.17065C1.71849 3.53684 1.97059 2.9292 2.41877 2.48102C2.86694 2.03285 3.47459 1.78075 4.1084 1.78003H20.3271C20.961 1.78075 21.5686 2.03285 22.0168 2.48102C22.465 2.9292 22.7171 3.53684 22.7178 4.17065V14.7644C22.7171 15.3982 22.465 16.0059 22.0168 16.454C21.5686 16.9022 20.961 17.1543 20.3271 17.155H8.63127C7.69374 17.1456 6.78601 17.4842 6.08362 18.1052L1.71777 21.8879V4.17065ZM5.45095 6.98315C5.45095 6.78424 5.52996 6.59348 5.67062 6.45283C5.81127 6.31217 6.00203 6.23315 6.20095 6.23315H18.2346C18.4336 6.23315 18.6243 6.31217 18.765 6.45283C18.9056 6.59348 18.9846 6.78424 18.9846 6.98315C18.9846 7.18207 18.9056 7.37283 18.765 7.51348C18.6243 7.65414 18.4336 7.73315 18.2346 7.73315H6.20095C6.00203 7.73315 5.81127 7.65414 5.67062 7.51348C5.52996 7.37283 5.45095 7.18207 5.45095 6.98315ZM6.20095 12.7019C6.00203 12.7019 5.81127 12.6229 5.67062 12.4822C5.52996 12.3416 5.45095 12.1508 5.45095 11.9519C5.45095 11.753 5.52996 11.5622 5.67062 11.4216C5.81127 11.2809 6.00203 11.2019 6.20095 11.2019H18.2346C18.4336 11.2019 18.6243 11.2809 18.765 11.4216C18.9056 11.5622 18.9846 11.753 18.9846 11.9519C18.9846 12.1508 18.9056 12.3416 18.765 12.4822C18.6243 12.6229 18.4336 12.7019 18.2346 12.7019H6.20095Z" fill="#F7FDF9"/>
</g>
<defs>
<clipPath id="clip0_9137_2001">
<rect width="24" height="24" fill="white" transform="translate(0.217773 0.280029)"/>
</clipPath>
</defs>
</svg>
