<svg width="30" height="30" viewBox="0 0 30 30" fill="none" xmlns="http://www.w3.org/2000/svg">
<path d="M27.0791 23.1832C26.2764 22.4675 25.5736 21.6471 24.9896 20.744C24.3521 19.4975 23.9701 18.1361 23.8658 16.7399V12.6275C23.8713 10.4345 23.0758 8.3149 21.6287 6.66704C20.1817 5.01917 18.1827 3.95643 16.0073 3.67851V2.60463C16.0073 2.30988 15.8902 2.02721 15.6818 1.81879C15.4734 1.61037 15.1907 1.49329 14.896 1.49329C14.6012 1.49329 14.3186 1.61037 14.1101 1.81879C13.9017 2.02721 13.7846 2.30988 13.7846 2.60463V3.69516C11.6288 3.99312 9.65393 5.06228 8.22588 6.70461C6.79783 8.34694 6.01336 10.4511 6.01774 12.6275V16.7399C5.91348 18.1361 5.5314 19.4975 4.89392 20.744C4.32025 21.6451 3.62873 22.4654 2.83773 23.1832C2.74893 23.2612 2.67776 23.3572 2.62896 23.4649C2.58016 23.5725 2.55484 23.6893 2.55469 23.8075V24.9397C2.55469 25.1605 2.64239 25.3722 2.79851 25.5283C2.95463 25.6844 3.16637 25.7721 3.38715 25.7721H26.5297C26.7505 25.7721 26.9622 25.6844 27.1183 25.5283C27.2744 25.3722 27.3622 25.1605 27.3622 24.9397V23.8075C27.362 23.6893 27.3367 23.5725 27.2879 23.4649C27.2391 23.3572 27.1679 23.2612 27.0791 23.1832ZM4.28622 24.1072C5.06075 23.359 5.7427 22.5205 6.31743 21.6098C7.12044 20.1043 7.58896 18.4431 7.691 16.7399V12.6275C7.65798 11.6519 7.82163 10.6796 8.1722 9.76855C8.52277 8.85749 9.05309 8.02629 9.73158 7.32446C10.4101 6.62262 11.2228 6.06449 12.1215 5.68331C13.0202 5.30213 13.9864 5.10569 14.9626 5.10569C15.9388 5.10569 16.905 5.30213 17.8036 5.68331C18.7023 6.06449 19.5151 6.62262 20.1936 7.32446C20.8721 8.02629 21.4024 8.85749 21.753 9.76855C22.1035 10.6796 22.2672 11.6519 22.2342 12.6275V16.7399C22.3362 18.4431 22.8047 20.1043 23.6077 21.6098C24.1825 22.5205 24.8644 23.359 25.639 24.1072H4.28622Z" fill="#141414"/>
<path d="M14.9986 28.5524C15.523 28.5404 16.0262 28.3432 16.4193 27.9959C16.8123 27.6485 17.0699 27.1734 17.1463 26.6544H12.7676C12.8462 27.1875 13.1158 27.6738 13.5262 28.0229C13.9366 28.3721 14.4598 28.5602 14.9986 28.5524Z" fill="#141414"/>
</svg>
