<svg width="27" height="21" viewBox="0 0 27 21" fill="none" xmlns="http://www.w3.org/2000/svg">
<path d="M25.0779 20.3882C25.2548 20.3882 25.4023 20.3882 25.5202 20.3882C25.8741 20.2702 26.169 20.0933 26.4049 19.8574C26.6408 19.6215 26.7588 19.2676 26.7588 18.7958C26.7588 18.0291 26.5228 17.2034 26.051 16.3187C25.4612 15.1392 24.6355 14.1955 23.5739 13.4878C22.1585 12.6031 20.4481 12.1608 18.4429 12.1608C16.4376 12.1608 14.7568 12.6031 13.4003 13.4878C12.2797 14.1955 11.4245 15.1392 10.8348 16.3187C10.4219 17.2034 10.2155 18.0291 10.2155 18.7958C10.2155 19.2676 10.3334 19.6215 10.5694 19.8574C10.8053 20.0933 11.0707 20.2702 11.3656 20.3882H11.8079H25.0779ZM11.8963 18.7958H11.8079C11.8079 18.4419 11.8963 18.0586 12.0733 17.6457C12.3092 16.997 12.6631 16.4072 13.1349 15.8764C14.3144 14.5199 16.0985 13.8269 18.4871 13.7974C20.8757 13.7679 22.6598 14.4609 23.8393 15.8764C24.2522 16.4072 24.5766 16.997 24.8125 17.6457C24.9894 18.0586 25.0779 18.4419 25.0779 18.7958H11.8963ZM18.4429 8.79905C19.3865 8.79905 20.1827 8.47467 20.8315 7.82592C21.4802 7.17716 21.8046 6.3957 21.8046 5.48155C21.8046 4.56739 21.4802 3.78594 20.8315 3.13718C20.1827 2.48843 19.4013 2.16405 18.4871 2.16405C17.573 2.16405 16.7915 2.48843 16.1427 3.13718C15.494 3.78594 15.1696 4.56739 15.1696 5.48155C15.1696 6.3957 15.494 7.17716 16.1427 7.82592C16.7915 8.47467 17.5582 8.79905 18.4429 8.79905ZM23.4855 5.52578C23.4855 6.88227 22.9989 8.04708 22.0258 9.02022C21.0527 9.99335 19.8731 10.4799 18.4871 10.4799C17.1011 10.4799 15.9216 9.99335 14.9485 9.02022C13.9753 8.04708 13.4888 6.86753 13.4888 5.48155C13.4888 4.09557 13.9753 2.93076 14.9485 1.98712C15.9216 1.04347 17.1011 0.556903 18.4871 0.527414C19.8731 0.497925 21.0379 0.969749 21.9816 1.94288C22.9252 2.91602 23.397 4.11032 23.397 5.52578H23.4855ZM11.7194 12.6031C11.0707 12.3672 10.3924 12.2198 9.68468 12.1608C9.27184 12.1608 8.88848 12.1608 8.53462 12.1608C6.52937 12.1608 4.81902 12.6031 3.40355 13.4878C2.34195 14.1955 1.51626 15.1392 0.926483 16.3187C0.454661 17.2034 0.21875 18.0291 0.21875 18.7958C0.21875 19.8574 0.779039 20.3882 1.89962 20.3882H8.88848C8.65257 19.9164 8.53462 19.3856 8.53462 18.7958C8.53462 17.0265 9.12439 15.4046 10.304 13.9301C10.7168 13.4583 11.1886 13.016 11.7194 12.6031ZM8.35768 13.7532C7.35506 15.2866 6.85375 16.9675 6.85375 18.7958H1.89962C1.89962 18.5009 1.98808 18.1175 2.16502 17.6457C2.40093 16.997 2.72531 16.4072 3.13815 15.8764C4.31771 14.5199 6.05755 13.8416 8.35768 13.8416V13.7532ZM2.69582 6.32198C2.69582 4.96549 3.18238 3.80068 4.15552 2.82755C5.12865 1.85442 6.30821 1.36785 7.69418 1.36785C9.08016 1.36785 10.2597 1.85442 11.2329 2.82755C12.206 3.80068 12.6925 4.96549 12.6925 6.32198C12.6925 7.67847 12.206 8.84328 11.2329 9.81642C10.2597 10.7895 9.08016 11.2761 7.69418 11.2761C6.30821 11.2761 5.12865 10.7895 4.15552 9.81642C3.18238 8.84328 2.69582 7.67847 2.69582 6.32198ZM7.64995 3.04872C6.76528 3.04872 5.99857 3.37309 5.34982 4.02185C4.70106 4.6706 4.37668 5.45206 4.37668 6.36622C4.37668 7.28037 4.70106 8.06183 5.34982 8.71058C5.99857 9.35934 6.78003 9.68372 7.69418 9.68372C8.60834 9.68372 9.38979 9.35934 10.0386 8.71058C10.6873 8.06183 11.0117 7.28037 11.0117 6.36622C11.0117 5.45206 10.6873 4.6706 10.0386 4.02185C9.38979 3.37309 8.59359 3.04872 7.64995 3.04872Z" fill="#637A6B"/>
</svg>
