<svg width="25" height="25" viewBox="0 0 25 25" fill="none" xmlns="http://www.w3.org/2000/svg">
<g clip-path="url(#clip0_9105_33406)">
<path d="M0.657219 24.6522C0.788001 24.7119 0.933194 24.7328 1.07551 24.7123C1.21782 24.6919 1.35125 24.6309 1.45991 24.5368L7.06681 19.6788C7.49535 19.2922 8.05516 19.0834 8.63225 19.095H20.3281C21.3596 19.0938 22.3485 18.6835 23.0779 17.9541C23.8073 17.2248 24.2176 16.2358 24.2188 15.2043V4.6106C24.2176 3.5791 23.8073 2.59018 23.0779 1.8608C22.3485 1.13142 21.3596 0.721137 20.3281 0.719971L4.10938 0.719971C3.07788 0.721137 2.08896 1.13142 1.35958 1.8608C0.630195 2.59018 0.219916 3.5791 0.21875 4.6106L0.21875 23.97C0.218754 24.1138 0.260086 24.2545 0.337824 24.3755C0.415562 24.4964 0.526429 24.5925 0.657219 24.6522ZM1.71875 4.6106C1.71947 3.97678 1.97157 3.36914 2.41974 2.92096C2.86792 2.47279 3.47556 2.22069 4.10938 2.21997H20.3281C20.9619 2.22069 21.5696 2.47279 22.0178 2.92096C22.4659 3.36914 22.718 3.97678 22.7188 4.6106V15.2043C22.718 15.8382 22.4659 16.4458 22.0178 16.894C21.5696 17.3422 20.9619 17.5943 20.3281 17.595H8.63225C7.69471 17.5856 6.78698 17.9241 6.08459 18.5452L1.71875 22.3278V4.6106ZM5.45192 7.4231C5.45192 7.22418 5.53094 7.03342 5.67159 6.89277C5.81224 6.75211 6.00301 6.6731 6.20192 6.6731H18.2356C18.4345 6.6731 18.6253 6.75211 18.766 6.89277C18.9066 7.03342 18.9856 7.22418 18.9856 7.4231C18.9856 7.62201 18.9066 7.81277 18.766 7.95343C18.6253 8.09408 18.4345 8.1731 18.2356 8.1731H6.20192C6.00301 8.1731 5.81224 8.09408 5.67159 7.95343C5.53094 7.81277 5.45192 7.62201 5.45192 7.4231ZM6.20192 13.1418C6.00301 13.1418 5.81224 13.0628 5.67159 12.9222C5.53094 12.7815 5.45192 12.5908 5.45192 12.3918C5.45192 12.1929 5.53094 12.0022 5.67159 11.8615C5.81224 11.7209 6.00301 11.6418 6.20192 11.6418H18.2356C18.4345 11.6418 18.6253 11.7209 18.766 11.8615C18.9066 12.0022 18.9856 12.1929 18.9856 12.3918C18.9856 12.5908 18.9066 12.7815 18.766 12.9222C18.6253 13.0628 18.4345 13.1418 18.2356 13.1418H6.20192Z" fill="#637A6B"/>
</g>
<defs>
<clipPath id="clip0_9105_33406">
<rect width="24" height="24" fill="white" transform="translate(0.21875 0.719971)"/>
</clipPath>
</defs>
</svg>
