<svg width="25" height="25" viewBox="0 0 25 25" fill="none" xmlns="http://www.w3.org/2000/svg">
<path d="M11.6791 14.61C13.2311 14.61 14.4891 13.3519 14.4891 11.8C14.4891 10.2481 13.2311 8.98999 11.6791 8.98999C10.1272 8.98999 8.86914 10.2481 8.86914 11.8C8.86914 13.3519 10.1272 14.61 11.6791 14.61Z" stroke="#637A6B" stroke-width="1.5" stroke-linecap="round" stroke-linejoin="round"/>
<path d="M16.8683 21.08C16.8683 18.75 14.5483 16.85 11.6783 16.85C8.80828 16.85 6.48828 18.74 6.48828 21.08" stroke="#637A6B" stroke-width="1.5" stroke-linecap="round" stroke-linejoin="round"/>
<path d="M21.2188 13.38C21.2188 18.63 16.9688 22.88 11.7188 22.88C6.46875 22.88 2.21875 18.63 2.21875 13.38C2.21875 8.13 6.46875 3.88 11.7188 3.88C13.0287 3.88 14.2788 4.14 15.4188 4.62C15.2888 5.02 15.2188 5.44 15.2188 5.88C15.2188 6.63 15.4288 7.34 15.7988 7.94C15.9988 8.28 16.2588 8.58998 16.5588 8.84998C17.2588 9.48998 18.1888 9.88 19.2188 9.88C19.6587 9.88 20.0788 9.80998 20.4688 9.66998C20.9487 10.81 21.2188 12.07 21.2188 13.38Z" stroke="#637A6B" stroke-width="1.5" stroke-linecap="round" stroke-linejoin="round"/>
<path d="M23.2188 5.88C23.2188 6.2 23.1787 6.51 23.0987 6.81C23.0087 7.21 22.8487 7.6 22.6387 7.94C22.1587 8.75 21.3888 9.37998 20.4688 9.66998C20.0788 9.80998 19.6587 9.88 19.2188 9.88C18.1888 9.88 17.2588 9.48998 16.5588 8.84998C16.2588 8.58998 15.9988 8.28 15.7988 7.94C15.4288 7.34 15.2188 6.63 15.2188 5.88C15.2188 5.44 15.2888 5.02 15.4188 4.62C15.6088 4.04 15.9288 3.52003 16.3488 3.09003C17.0788 2.34003 18.0987 1.88 19.2188 1.88C20.3987 1.88 21.4688 2.39002 22.1888 3.21002C22.8288 3.92002 23.2188 4.86 23.2188 5.88Z" stroke="#637A6B" stroke-width="1.5" stroke-miterlimit="10" stroke-linecap="round" stroke-linejoin="round"/>
<path d="M20.7085 5.85999H17.7285" stroke="#637A6B" stroke-width="1.5" stroke-miterlimit="10" stroke-linecap="round" stroke-linejoin="round"/>
<path d="M19.2188 4.40002V7.39001" stroke="#637A6B" stroke-width="1.5" stroke-miterlimit="10" stroke-linecap="round" stroke-linejoin="round"/>
</svg>
