<svg width="40" height="27" viewBox="0 0 40 27" fill="none" xmlns="http://www.w3.org/2000/svg">
<path d="M39.4706 7.86891C39.0734 7.30152 38.4304 6.96109 37.7306 6.96109H28.5105L27.2339 8.53087H30.9408L30.4491 11.3584H25.3899V10.6208C25.1534 10.7626 24.8792 10.8288 24.605 10.8288C24.3213 10.8288 24.0565 10.7532 23.8201 10.6208V11.3489H18.3542L17.8625 8.52141H21.976L20.6994 6.95163H10.1554L8.70854 2.50706C8.42485 1.62761 7.61159 1.0413 6.63757 1.0413L6.24985 1.05076L5.88104 1.06022C5.59735 0.663041 5.14343 0.407715 4.64224 0.407715H1.6918C0.840717 0.407715 0.150391 1.09804 0.150391 1.94913C0.150391 2.80022 0.840717 3.49054 1.6918 3.49054H4.64224C5.22854 3.49054 5.75811 3.15011 6.02289 2.62054L6.36333 2.61108L6.70376 2.60163C6.94963 2.60163 7.15767 2.76239 7.23333 2.98935L11.8292 17.089V17.0985L14.4203 25.042C14.704 25.9214 15.5172 26.5172 16.444 26.5172H34.156C34.591 26.5172 34.9409 26.1578 34.9409 25.7323C34.9409 25.2973 34.591 24.9474 34.156 24.9474H16.4345C16.1887 24.9474 15.9712 24.7866 15.905 24.5597L15.0633 21.9686H33.9196C34.8085 21.9686 35.6218 21.4012 35.9339 20.5596L37.1632 17.1079V17.0985L39.7543 9.79804C39.9624 9.16446 39.8678 8.4363 39.4706 7.86891ZM11.5928 11.3584L10.666 8.53087H16.2832L16.775 11.3584H11.5928ZM12.1034 12.9282H17.0492L17.5788 16.0204H13.1153L12.1034 12.9282ZM14.5432 20.4083L13.6165 17.5902H17.8435L18.3353 20.4083H14.5432ZM23.8295 20.4083H19.9334L19.4417 17.5902H23.8201V20.4083H23.8295ZM23.8295 16.0204H19.1769L18.6379 12.9282H23.8295V16.0204ZM28.8793 20.4083H25.3899V17.5902H29.371L28.8793 20.4083ZM29.6453 16.0204H25.3993V12.9282H30.1843L29.6453 16.0204ZM34.4397 20.03C34.3546 20.257 34.1466 20.4083 33.9102 20.4083H30.4775L30.9692 17.5902H35.3192L34.4397 20.03ZM35.8677 16.0204H31.234L31.773 12.9282H36.9552L35.8677 16.0204ZM38.2602 9.28739L37.5226 11.3678H32.0472L32.539 8.54032H37.7401C37.9197 8.54032 38.09 8.63489 38.194 8.77674C38.298 8.92804 38.3169 9.10772 38.2602 9.28739Z" fill="#016324"/>
</svg>
