<svg width="25" height="25" viewBox="0 0 25 25" fill="none" xmlns="http://www.w3.org/2000/svg">
<path d="M6.71889 17.84H17.5481C18.498 17.84 18.973 17.84 19.3601 17.6684C19.7014 17.5171 19.9935 17.2733 20.2034 16.9646C20.4415 16.6144 20.5265 16.1471 20.6964 15.2124L22.0473 7.78308C22.1062 7.45915 22.1357 7.29718 22.0902 7.17071C22.0503 7.05976 21.9723 6.96648 21.8703 6.90736C21.754 6.83997 21.5895 6.83997 21.2602 6.83997H5.21889M2.21875 2.83997H3.53515C3.77784 2.83997 3.89919 2.83997 3.99733 2.8843C4.08382 2.92337 4.15742 2.98625 4.2095 3.0656C4.26859 3.15562 4.28751 3.27548 4.32537 3.5152L7.11213 21.1648C7.14999 21.4045 7.16891 21.5243 7.228 21.6144C7.28008 21.6937 7.35368 21.7566 7.44017 21.7957C7.53831 21.84 7.65966 21.84 7.90235 21.84H19.2188" stroke="#637A6B" stroke-width="2" stroke-linecap="round" stroke-linejoin="round"/>
</svg>
