<svg width="25" height="25" viewBox="0 0 25 25" fill="none" xmlns="http://www.w3.org/2000/svg">
<path d="M16.4766 17.48L21.4766 12.48M21.4766 12.48L16.4766 7.47998M21.4766 12.48H9.47656M12.4766 17.48C12.4766 18.41 12.4766 18.875 12.3744 19.2565C12.097 20.2917 11.2883 21.1004 10.253 21.3778C9.87152 21.48 9.40653 21.48 8.47656 21.48H7.97656C6.57874 21.48 5.87982 21.48 5.32851 21.2516C4.59343 20.9472 4.0094 20.3631 3.70492 19.6281C3.47656 19.0767 3.47656 18.3778 3.47656 16.98V7.97998C3.47656 6.58215 3.47656 5.88324 3.70492 5.33193C4.0094 4.59685 4.59343 4.01282 5.32851 3.70834C5.87982 3.47998 6.57874 3.47998 7.97656 3.47998H8.47656C9.40653 3.47998 9.87152 3.47998 10.253 3.5822C11.2883 3.8596 12.097 4.66825 12.3744 5.70352C12.4766 6.08502 12.4766 6.55001 12.4766 7.47998" stroke="#637A6B" stroke-width="2" stroke-linecap="round" stroke-linejoin="round"/>
</svg>
