<svg width="10" height="6" viewBox="0 0 10 6" fill="none" xmlns="http://www.w3.org/2000/svg">
<path d="M0.227036 0.46959C0.367682 0.328987 0.558413 0.25 0.757286 0.25C0.956159 0.25 1.14689 0.328987 1.28754 0.46959L5.00004 4.18209L8.71254 0.46959C8.85399 0.332971 9.04344 0.257375 9.24009 0.259084C9.43674 0.260793 9.62484 0.33967 9.7639 0.478726C9.90296 0.617782 9.98183 0.805891 9.98354 1.00254C9.98525 1.19919 9.90965 1.38864 9.77304 1.53009L5.53029 5.77284C5.38964 5.91344 5.19891 5.99243 5.00004 5.99243C4.80116 5.99243 4.61043 5.91344 4.46979 5.77284L0.227036 1.53009C0.0864329 1.38944 0.00744629 1.19871 0.00744629 0.99984C0.00744629 0.800967 0.0864329 0.610236 0.227036 0.46959Z" fill="#4A4545"/>
</svg>
