<svg width="27" height="21" viewBox="0 0 27 21" fill="none" xmlns="http://www.w3.org/2000/svg">
<path d="M25.0779 20.6387C25.2548 20.6387 25.4023 20.6387 25.5202 20.6387C25.8741 20.5207 26.169 20.3438 26.4049 20.1079C26.6408 19.872 26.7588 19.5181 26.7588 19.0463C26.7588 18.2796 26.5228 17.4539 26.051 16.5692C25.4612 15.3896 24.6355 14.446 23.5739 13.7383C22.1585 12.8536 20.4481 12.4113 18.4429 12.4113C16.4376 12.4113 14.7568 12.8536 13.4003 13.7383C12.2797 14.446 11.4245 15.3896 10.8348 16.5692C10.4219 17.4539 10.2155 18.2796 10.2155 19.0463C10.2155 19.5181 10.3334 19.872 10.5694 20.1079C10.8053 20.3438 11.0707 20.5207 11.3656 20.6387H11.8079H25.0779ZM11.8963 19.0463H11.8079C11.8079 18.6924 11.8963 18.309 12.0733 17.8962C12.3092 17.2474 12.6631 16.6577 13.1349 16.1269C14.3144 14.7704 16.0985 14.0774 18.4871 14.0479C20.8757 14.0184 22.6598 14.7114 23.8393 16.1269C24.2522 16.6577 24.5766 17.2474 24.8125 17.8962C24.9894 18.309 25.0779 18.6924 25.0779 19.0463H11.8963ZM18.4429 9.04954C19.3865 9.04954 20.1827 8.72516 20.8315 8.0764C21.4802 7.42765 21.8046 6.64619 21.8046 5.73204C21.8046 4.81788 21.4802 4.03643 20.8315 3.38767C20.1827 2.73891 19.4013 2.41454 18.4871 2.41454C17.573 2.41454 16.7915 2.73891 16.1427 3.38767C15.494 4.03643 15.1696 4.81788 15.1696 5.73204C15.1696 6.64619 15.494 7.42765 16.1427 8.0764C16.7915 8.72516 17.5582 9.04954 18.4429 9.04954ZM23.4855 5.77627C23.4855 7.13276 22.9989 8.29757 22.0258 9.2707C21.0527 10.2438 19.8731 10.7304 18.4871 10.7304C17.1011 10.7304 15.9216 10.2438 14.9485 9.2707C13.9753 8.29757 13.4888 7.11802 13.4888 5.73204C13.4888 4.34606 13.9753 3.18125 14.9485 2.2376C15.9216 1.29396 17.1011 0.807391 18.4871 0.777903C19.8731 0.748414 21.0379 1.22024 21.9816 2.19337C22.9252 3.1665 23.397 4.3608 23.397 5.77627H23.4855ZM11.7194 12.8536C11.0707 12.6177 10.3924 12.4702 9.68468 12.4113C9.27184 12.4113 8.88848 12.4113 8.53462 12.4113C6.52937 12.4113 4.81902 12.8536 3.40355 13.7383C2.34195 14.446 1.51626 15.3896 0.926483 16.5692C0.454661 17.4539 0.21875 18.2796 0.21875 19.0463C0.21875 20.1079 0.779039 20.6387 1.89962 20.6387H8.88848C8.65257 20.1668 8.53462 19.636 8.53462 19.0463C8.53462 17.2769 9.12439 15.655 10.304 14.1806C10.7168 13.7088 11.1886 13.2664 11.7194 12.8536ZM8.35768 14.0037C7.35506 15.5371 6.85375 17.218 6.85375 19.0463H1.89962C1.89962 18.7514 1.98808 18.368 2.16502 17.8962C2.40093 17.2474 2.72531 16.6577 3.13815 16.1269C4.31771 14.7704 6.05755 14.0921 8.35768 14.0921V14.0037ZM2.69582 6.57247C2.69582 5.21598 3.18238 4.05117 4.15552 3.07804C5.12865 2.1049 6.30821 1.61834 7.69418 1.61834C9.08016 1.61834 10.2597 2.1049 11.2329 3.07804C12.206 4.05117 12.6925 5.21598 12.6925 6.57247C12.6925 7.92896 12.206 9.09377 11.2329 10.0669C10.2597 11.04 9.08016 11.5266 7.69418 11.5266C6.30821 11.5266 5.12865 11.04 4.15552 10.0669C3.18238 9.09377 2.69582 7.92896 2.69582 6.57247ZM7.64995 3.2992C6.76528 3.2992 5.99857 3.62358 5.34982 4.27234C4.70106 4.92109 4.37668 5.70255 4.37668 6.6167C4.37668 7.53086 4.70106 8.31232 5.34982 8.96107C5.99857 9.60983 6.78003 9.9342 7.69418 9.9342C8.60834 9.9342 9.38979 9.60983 10.0386 8.96107C10.6873 8.31232 11.0117 7.53086 11.0117 6.6167C11.0117 5.70255 10.6873 4.92109 10.0386 4.27234C9.38979 3.62358 8.59359 3.2992 7.64995 3.2992Z" fill="white"/>
</svg>
