<svg width="25" height="25" viewBox="0 0 25 25" fill="none" xmlns="http://www.w3.org/2000/svg">
<path d="M16.5078 17.4805L21.5078 12.4805M21.5078 12.4805L16.5078 7.48047M21.5078 12.4805H9.50781M12.5078 17.4805C12.5078 18.4105 12.5078 18.8755 12.4056 19.257C12.1282 20.2922 11.3195 21.1009 10.2843 21.3783C9.90277 21.4805 9.43778 21.4805 8.50781 21.4805H8.00781C6.60999 21.4805 5.91107 21.4805 5.35976 21.2521C4.62468 20.9477 4.04065 20.3636 3.73617 19.6286C3.50781 19.0772 3.50781 18.3783 3.50781 16.9805V7.98047C3.50781 6.58264 3.50781 5.88373 3.73617 5.33242C4.04065 4.59734 4.62468 4.01331 5.35976 3.70883C5.91107 3.48047 6.60999 3.48047 8.00781 3.48047H8.50781C9.43778 3.48047 9.90277 3.48047 10.2843 3.58269C11.3195 3.86009 12.1282 4.66874 12.4056 5.70401C12.5078 6.08551 12.5078 6.5505 12.5078 7.48047" stroke="white" stroke-width="2" stroke-linecap="round" stroke-linejoin="round"/>
</svg>
