<svg width="12" height="13" viewBox="0 0 12 13" fill="none" xmlns="http://www.w3.org/2000/svg">
<path d="M1.22698 8.53065C1.36762 8.67126 1.55835 8.75024 1.75723 8.75024C1.9561 8.75024 2.14683 8.67126 2.28748 8.53065L5.99998 4.81815L9.71247 8.53065C9.85393 8.66727 10.0434 8.74287 10.24 8.74116C10.4367 8.73945 10.6248 8.66057 10.7638 8.52152C10.9029 8.38246 10.9818 8.19435 10.9835 7.9977C10.9852 7.80106 10.9096 7.6116 10.773 7.47015L6.53022 3.2274C6.38958 3.0868 6.19885 3.00781 5.99998 3.00781C5.8011 3.00781 5.61037 3.0868 5.46973 3.2274L1.22698 7.47015C1.08637 7.6108 1.00739 7.80153 1.00739 8.0004C1.00739 8.19928 1.08637 8.39001 1.22698 8.53065Z" fill="#4A72FF"/>
</svg>
