<svg width="27" height="27" viewBox="0 0 27 27" fill="none" xmlns="http://www.w3.org/2000/svg">
<path d="M13.815 12.2334C12.9714 12.2245 12.1494 11.9662 11.4523 11.4911C10.7552 11.016 10.2143 10.3453 9.89761 9.56339C9.58093 8.7815 9.50267 7.92339 9.67267 7.09711C9.84266 6.27082 10.2533 5.51331 10.8529 4.91993C11.4526 4.32655 12.2143 3.92384 13.0424 3.76251C13.8704 3.60117 14.7276 3.68842 15.5062 4.01326C16.2847 4.33811 16.9497 4.88603 17.4175 5.58804C17.8853 6.29005 18.1349 7.11477 18.135 7.95836C18.127 9.09751 17.6679 10.1871 16.8582 10.9884C16.0485 11.7897 14.9541 12.2374 13.815 12.2334ZM13.815 5.18336C13.2681 5.19223 12.7361 5.36249 12.2857 5.67275C11.8353 5.98301 11.4867 6.41944 11.2835 6.92722C11.0804 7.435 11.0318 7.99149 11.1439 8.52679C11.256 9.06209 11.5238 9.55233 11.9136 9.93593C12.3034 10.3195 12.7979 10.5794 13.3349 10.6829C13.872 10.7863 14.4276 10.7288 14.932 10.5175C15.4365 10.3062 15.8673 9.95061 16.1702 9.49529C16.4732 9.03997 16.6349 8.50527 16.635 7.95836C16.627 7.21703 16.326 6.50899 15.7975 5.989C15.2691 5.469 14.5563 5.17935 13.815 5.18336Z" fill="white"/>
<path d="M13.8151 12.2334C12.9716 12.2245 12.1495 11.9662 11.4524 11.4911C10.7553 11.016 10.2144 10.3453 9.89774 9.56339C9.58107 8.7815 9.5028 7.92339 9.6728 7.09711C9.8428 6.27082 10.2535 5.51331 10.8531 4.91993C11.4527 4.32655 12.2145 3.92384 13.0425 3.76251C13.8705 3.60117 14.7278 3.68842 15.5063 4.01326C16.2848 4.33811 16.9499 4.88603 17.4176 5.58804C17.8854 6.29005 18.135 7.11477 18.1351 7.95836C18.1272 9.09751 17.668 10.1871 16.8583 10.9884C16.0486 11.7897 14.9543 12.2374 13.8151 12.2334ZM13.8151 5.18336C13.2683 5.19223 12.7362 5.36249 12.2858 5.67275C11.8355 5.98301 11.4868 6.41944 11.2836 6.92722C11.0805 7.435 11.0319 7.99149 11.144 8.52679C11.2561 9.06209 11.5239 9.55233 11.9137 9.93593C12.3035 10.3195 12.798 10.5794 13.3351 10.6829C13.8721 10.7863 14.4277 10.7288 14.9322 10.5175C15.4366 10.3062 15.8674 9.95061 16.1704 9.49529C16.4733 9.03997 16.635 8.50527 16.6351 7.95836C16.6272 7.21703 16.3261 6.50899 15.7977 5.989C15.2692 5.469 14.5565 5.17935 13.8151 5.18336ZM16.4326 13.2384C13.106 12.6595 9.68137 13.1864 6.6826 14.7384C6.46973 14.8566 6.29346 15.031 6.17309 15.2427C6.05272 15.4543 5.99287 15.695 6.0001 15.9384V18.6084C6.0001 18.8073 6.07911 18.998 6.21977 19.1387C6.36042 19.2793 6.55118 19.3584 6.7501 19.3584C6.94901 19.3584 7.13977 19.2793 7.28043 19.1387C7.42108 18.998 7.5001 18.8073 7.5001 18.6084V16.0359C10.2808 14.6406 13.4431 14.1979 16.5001 14.7759L16.4326 13.2384Z" fill="white"/>
<path d="M24.75 16.5006H19.725V15.3906C19.725 15.1917 19.646 15.0009 19.5053 14.8603C19.3647 14.7196 19.1739 14.6406 18.975 14.6406C18.7761 14.6406 18.5853 14.7196 18.4447 14.8603C18.304 15.0009 18.225 15.1917 18.225 15.3906V16.5006H12.75C12.5511 16.5006 12.3603 16.5796 12.2197 16.7203C12.079 16.8609 12 17.0517 12 17.2506V24.7506C12 24.9495 12.079 25.1403 12.2197 25.281C12.3603 25.4216 12.5511 25.5006 12.75 25.5006H24.75C24.9489 25.5006 25.1397 25.4216 25.2803 25.281C25.421 25.1403 25.5 24.9495 25.5 24.7506V17.2506C25.5 17.0517 25.421 16.8609 25.2803 16.7203C25.1397 16.5796 24.9489 16.5006 24.75 16.5006ZM24 24.0006H13.5V18.0006H18.225V18.3081C18.225 18.507 18.304 18.6978 18.4447 18.8385C18.5853 18.9791 18.7761 19.0581 18.975 19.0581C19.1739 19.0581 19.3647 18.9791 19.5053 18.8385C19.646 18.6978 19.725 18.507 19.725 18.3081V18.0006H24V24.0006Z" fill="white"/>
<path d="M16.3575 20.5636H20.8275V21.6136H16.3575V20.5636ZM8.13 9.17862C6.05358 9.21336 4.01317 9.72667 2.1675 10.6786C1.96677 10.7846 1.79863 10.9432 1.68106 11.1374C1.56349 11.3316 1.50091 11.5541 1.5 11.7811V14.1061C1.5 14.305 1.57902 14.4958 1.71967 14.6365C1.86032 14.7771 2.05109 14.8561 2.25 14.8561C2.44891 14.8561 2.63968 14.7771 2.78033 14.6365C2.92098 14.4958 3 14.305 3 14.1061V11.9311C4.76347 11.0533 6.71592 10.6232 8.685 10.6786C8.42737 10.2086 8.24037 9.70316 8.13 9.17862ZM24.8325 10.6711C23.1771 9.80278 21.3579 9.29175 19.4925 9.17112C19.3827 9.69473 19.1983 10.1999 18.945 10.6711C20.7023 10.7132 22.4285 11.1435 24 11.9311V14.1061C24 14.305 24.079 14.4958 24.2197 14.6365C24.3603 14.7771 24.5511 14.8561 24.75 14.8561C24.9489 14.8561 25.1397 14.7771 25.2803 14.6365C25.421 14.4958 25.5 14.305 25.5 14.1061V11.7811C25.5005 11.5528 25.4385 11.3288 25.3209 11.1331C25.2032 10.9375 25.0344 10.7777 24.8325 10.6711ZM7.995 7.95612V7.45362C7.40746 7.375 6.87289 7.0728 6.50255 6.60994C6.13222 6.14709 5.95467 5.55924 6.00685 4.96876C6.05904 4.37829 6.33694 3.83069 6.78271 3.43997C7.22849 3.04924 7.80778 2.84548 8.4 2.87112C9.01599 2.87001 9.60805 3.10952 10.05 3.53862C10.4399 3.21701 10.8682 2.94494 11.325 2.72862C10.8147 2.14187 10.1386 1.7235 9.38579 1.52868C8.63298 1.33385 7.8388 1.37171 7.10793 1.63725C6.37706 1.9028 5.74381 2.38358 5.29165 3.01621C4.83948 3.64885 4.58962 4.40365 4.575 5.18112C4.59074 6.13269 4.96065 7.04421 5.61248 7.73765C6.2643 8.43108 7.15123 8.85661 8.1 8.93112C8.03638 8.60985 8.00124 8.28358 7.995 7.95612ZM18.5775 1.37112C18.0621 1.37124 17.5519 1.4741 17.0767 1.67371C16.6015 1.87331 16.1709 2.16565 15.81 2.53362C16.317 2.71735 16.7965 2.9697 17.235 3.28362C17.5851 3.04057 17.9947 2.8971 18.4199 2.86851C18.8452 2.83991 19.2703 2.92727 19.6498 3.12126C20.0293 3.31526 20.3491 3.60862 20.575 3.97006C20.8009 4.3315 20.9244 4.74747 20.9325 5.17362C20.9278 5.61135 20.7992 6.03879 20.5616 6.40646C20.324 6.77412 19.9871 7.06698 19.59 7.25112C19.6202 7.4824 19.6352 7.71539 19.635 7.94862C19.633 8.2501 19.6079 8.55098 19.56 8.84862C20.377 8.63857 21.1017 8.16431 21.6212 7.49964C22.1408 6.83498 22.426 6.01721 22.4325 5.17362C22.4226 4.1591 22.0116 3.18973 21.2893 2.47725C20.567 1.76478 19.5921 1.36711 18.5775 1.37112Z" fill="white"/>
</svg>
