<svg width="27" height="27" viewBox="0 0 27 27" fill="none" xmlns="http://www.w3.org/2000/svg">
<path d="M6.75 4.21875C6.75 3.99497 6.8389 3.78036 6.99713 3.62213C7.15536 3.4639 7.36997 3.375 7.59375 3.375H9.28125C9.50503 3.375 9.71964 3.4639 9.87787 3.62213C10.0361 3.78036 10.125 3.99497 10.125 4.21875V5.90625C10.125 6.13003 10.0361 6.34464 9.87787 6.50287C9.71964 6.6611 9.50503 6.75 9.28125 6.75H7.59375C7.36997 6.75 7.15536 6.6611 6.99713 6.50287C6.8389 6.34464 6.75 6.13003 6.75 5.90625V4.21875ZM11.8125 4.21875C11.8125 3.99497 11.9014 3.78036 12.0596 3.62213C12.2179 3.4639 12.4325 3.375 12.6562 3.375H14.3438C14.5675 3.375 14.7821 3.4639 14.9404 3.62213C15.0986 3.78036 15.1875 3.99497 15.1875 4.21875V5.90625C15.1875 6.13003 15.0986 6.34464 14.9404 6.50287C14.7821 6.6611 14.5675 6.75 14.3438 6.75H12.6562C12.4325 6.75 12.2179 6.6611 12.0596 6.50287C11.9014 6.34464 11.8125 6.13003 11.8125 5.90625V4.21875ZM17.7188 3.375C17.495 3.375 17.2804 3.4639 17.1221 3.62213C16.9639 3.78036 16.875 3.99497 16.875 4.21875V5.90625C16.875 6.13003 16.9639 6.34464 17.1221 6.50287C17.2804 6.6611 17.495 6.75 17.7188 6.75H19.4062C19.63 6.75 19.8446 6.6611 20.0029 6.50287C20.1611 6.34464 20.25 6.13003 20.25 5.90625V4.21875C20.25 3.99497 20.1611 3.78036 20.0029 3.62213C19.8446 3.4639 19.63 3.375 19.4062 3.375H17.7188ZM6.75 9.28125C6.75 9.05747 6.8389 8.84286 6.99713 8.68463C7.15536 8.52639 7.36997 8.4375 7.59375 8.4375H9.28125C9.50503 8.4375 9.71964 8.52639 9.87787 8.68463C10.0361 8.84286 10.125 9.05747 10.125 9.28125V10.9688C10.125 11.1925 10.0361 11.4071 9.87787 11.5654C9.71964 11.7236 9.50503 11.8125 9.28125 11.8125H7.59375C7.36997 11.8125 7.15536 11.7236 6.99713 11.5654C6.8389 11.4071 6.75 11.1925 6.75 10.9688V9.28125ZM12.6562 8.4375C12.4325 8.4375 12.2179 8.52639 12.0596 8.68463C11.9014 8.84286 11.8125 9.05747 11.8125 9.28125V10.9688C11.8125 11.1925 11.9014 11.4071 12.0596 11.5654C12.2179 11.7236 12.4325 11.8125 12.6562 11.8125H14.3438C14.5675 11.8125 14.7821 11.7236 14.9404 11.5654C15.0986 11.4071 15.1875 11.1925 15.1875 10.9688V9.28125C15.1875 9.05747 15.0986 8.84286 14.9404 8.68463C14.7821 8.52639 14.5675 8.4375 14.3438 8.4375H12.6562ZM16.875 9.28125C16.875 9.05747 16.9639 8.84286 17.1221 8.68463C17.2804 8.52639 17.495 8.4375 17.7188 8.4375H19.4062C19.63 8.4375 19.8446 8.52639 20.0029 8.68463C20.1611 8.84286 20.25 9.05747 20.25 9.28125V10.9688C20.25 11.1925 20.1611 11.4071 20.0029 11.5654C19.8446 11.7236 19.63 11.8125 19.4062 11.8125H17.7188C17.495 11.8125 17.2804 11.7236 17.1221 11.5654C16.9639 11.4071 16.875 11.1925 16.875 10.9688V9.28125ZM7.59375 13.5C7.36997 13.5 7.15536 13.5889 6.99713 13.7471C6.8389 13.9054 6.75 14.12 6.75 14.3438V16.0312C6.75 16.255 6.8389 16.4696 6.99713 16.6279C7.15536 16.7861 7.36997 16.875 7.59375 16.875H9.28125C9.50503 16.875 9.71964 16.7861 9.87787 16.6279C10.0361 16.4696 10.125 16.255 10.125 16.0312V14.3438C10.125 14.12 10.0361 13.9054 9.87787 13.7471C9.71964 13.5889 9.50503 13.5 9.28125 13.5H7.59375ZM11.8125 14.3438C11.8125 14.12 11.9014 13.9054 12.0596 13.7471C12.2179 13.5889 12.4325 13.5 12.6562 13.5H14.3438C14.5675 13.5 14.7821 13.5889 14.9404 13.7471C15.0986 13.9054 15.1875 14.12 15.1875 14.3438V16.0312C15.1875 16.255 15.0986 16.4696 14.9404 16.6279C14.7821 16.7861 14.5675 16.875 14.3438 16.875H12.6562C12.4325 16.875 12.2179 16.7861 12.0596 16.6279C11.9014 16.4696 11.8125 16.255 11.8125 16.0312V14.3438ZM17.7188 13.5C17.495 13.5 17.2804 13.5889 17.1221 13.7471C16.9639 13.9054 16.875 14.12 16.875 14.3438V16.0312C16.875 16.255 16.9639 16.4696 17.1221 16.6279C17.2804 16.7861 17.495 16.875 17.7188 16.875H19.4062C19.63 16.875 19.8446 16.7861 20.0029 16.6279C20.1611 16.4696 20.25 16.255 20.25 16.0312V14.3438C20.25 14.12 20.1611 13.9054 20.0029 13.7471C19.8446 13.5889 19.63 13.5 19.4062 13.5H17.7188Z" fill="white"/>
<path d="M3.375 1.6875C3.375 1.23995 3.55279 0.810725 3.86926 0.494257C4.18572 0.17779 4.61495 0 5.0625 0L21.9375 0C22.3851 0 22.8143 0.17779 23.1307 0.494257C23.4472 0.810725 23.625 1.23995 23.625 1.6875V25.3125C23.625 25.7601 23.4472 26.1893 23.1307 26.5057C22.8143 26.8222 22.3851 27 21.9375 27H5.0625C4.61495 27 4.18572 26.8222 3.86926 26.5057C3.55279 26.1893 3.375 25.7601 3.375 25.3125V1.6875ZM21.9375 1.6875H5.0625V25.3125H10.125V21.0938C10.125 20.87 10.2139 20.6554 10.3721 20.4971C10.5304 20.3389 10.745 20.25 10.9688 20.25H16.0312C16.255 20.25 16.4696 20.3389 16.6279 20.4971C16.7861 20.6554 16.875 20.87 16.875 21.0938V25.3125H21.9375V1.6875Z" fill="white"/>
</svg>
