<svg width="27" height="27" viewBox="0 0 27 27" fill="none" xmlns="http://www.w3.org/2000/svg">
<path d="M5.625 5.625H7.875V9H19.125V5.625H21.375V11.25H23.625V5.625C23.625 4.3875 22.6125 3.375 21.375 3.375H16.6725C16.2 2.07 14.9625 1.125 13.5 1.125C12.0375 1.125 10.8 2.07 10.3275 3.375H5.625C4.3875 3.375 3.375 4.3875 3.375 5.625V21.375C3.375 22.6125 4.3875 23.625 5.625 23.625H12.375V21.375H5.625V5.625ZM13.5 3.375C14.1187 3.375 14.625 3.88125 14.625 4.5C14.625 5.11875 14.1187 5.625 13.5 5.625C12.8813 5.625 12.375 5.11875 12.375 4.5C12.375 3.88125 12.8813 3.375 13.5 3.375Z" fill="white"/>
<path d="M23.625 12.9375L17.4488 19.125L14.0625 15.75L12.375 17.4375L17.4488 22.5L25.3125 14.625L23.625 12.9375Z" fill="white"/>
</svg>
